<mxfile host="app.diagrams.net" modified="2024-05-31T09:46:10.902Z" agent="Mozilla/5.0 (Windows NT 10.0; Win64; x64) AppleWebKit/537.36 (KHTML, like Gecko) Chrome/125.0.0.0 Safari/537.36" etag="AeEEev0faKAJGd_5QWzJ" version="24.4.10" type="device">
  <diagram name="Страница — 1" id="v4tisdl0ceb5SUDVekPl">
    <mxGraphModel dx="1468" dy="1003" grid="1" gridSize="10" guides="1" tooltips="1" connect="1" arrows="1" fold="1" page="1" pageScale="1" pageWidth="827" pageHeight="1169" math="0" shadow="0">
      <root>
        <mxCell id="0" />
        <mxCell id="1" parent="0" />
        <mxCell id="rz_fQfq-9hxUO6DxXe4U-112" style="edgeStyle=orthogonalEdgeStyle;rounded=0;orthogonalLoop=1;jettySize=auto;html=1;entryX=0.5;entryY=0;entryDx=0;entryDy=0;dashed=1;" edge="1" parent="1" source="rz_fQfq-9hxUO6DxXe4U-63" target="rz_fQfq-9hxUO6DxXe4U-84">
          <mxGeometry relative="1" as="geometry" />
        </mxCell>
        <mxCell id="rz_fQfq-9hxUO6DxXe4U-63" value="Program" style="swimlane;fontStyle=0;childLayout=stackLayout;horizontal=1;startSize=30;horizontalStack=0;resizeParent=1;resizeParentMax=0;resizeLast=0;collapsible=1;marginBottom=0;whiteSpace=wrap;html=1;" vertex="1" parent="1">
          <mxGeometry x="874" y="330" width="140" height="60" as="geometry" />
        </mxCell>
        <mxCell id="rz_fQfq-9hxUO6DxXe4U-64" value="Main(): void" style="text;strokeColor=none;fillColor=none;align=left;verticalAlign=middle;spacingLeft=4;spacingRight=4;overflow=hidden;points=[[0,0.5],[1,0.5]];portConstraint=eastwest;rotatable=0;whiteSpace=wrap;html=1;" vertex="1" parent="rz_fQfq-9hxUO6DxXe4U-63">
          <mxGeometry y="30" width="140" height="30" as="geometry" />
        </mxCell>
        <mxCell id="rz_fQfq-9hxUO6DxXe4U-66" value="Accident" style="swimlane;fontStyle=0;childLayout=stackLayout;horizontal=1;startSize=30;horizontalStack=0;resizeParent=1;resizeParentMax=0;resizeLast=0;collapsible=1;marginBottom=0;whiteSpace=wrap;html=1;" vertex="1" parent="1">
          <mxGeometry x="600" y="430" width="270" height="390" as="geometry" />
        </mxCell>
        <mxCell id="rz_fQfq-9hxUO6DxXe4U-67" value="Count: int" style="text;html=1;align=left;verticalAlign=middle;whiteSpace=wrap;rounded=0;" vertex="1" parent="rz_fQfq-9hxUO6DxXe4U-66">
          <mxGeometry y="30" width="270" height="30" as="geometry" />
        </mxCell>
        <mxCell id="rz_fQfq-9hxUO6DxXe4U-68" value="ID: int" style="text;html=1;align=left;verticalAlign=middle;whiteSpace=wrap;rounded=0;" vertex="1" parent="rz_fQfq-9hxUO6DxXe4U-66">
          <mxGeometry y="60" width="270" height="30" as="geometry" />
        </mxCell>
        <mxCell id="rz_fQfq-9hxUO6DxXe4U-69" value="Name: string" style="text;strokeColor=none;fillColor=none;align=left;verticalAlign=middle;spacingLeft=4;spacingRight=4;overflow=hidden;points=[[0,0.5],[1,0.5]];portConstraint=eastwest;rotatable=0;whiteSpace=wrap;html=1;" vertex="1" parent="rz_fQfq-9hxUO6DxXe4U-66">
          <mxGeometry y="90" width="270" height="30" as="geometry" />
        </mxCell>
        <mxCell id="rz_fQfq-9hxUO6DxXe4U-70" value="Location: string" style="text;strokeColor=none;fillColor=none;align=left;verticalAlign=middle;spacingLeft=4;spacingRight=4;overflow=hidden;points=[[0,0.5],[1,0.5]];portConstraint=eastwest;rotatable=0;whiteSpace=wrap;html=1;" vertex="1" parent="rz_fQfq-9hxUO6DxXe4U-66">
          <mxGeometry y="120" width="270" height="30" as="geometry" />
        </mxCell>
        <mxCell id="rz_fQfq-9hxUO6DxXe4U-71" value="Severity: int" style="text;strokeColor=none;fillColor=none;align=left;verticalAlign=middle;spacingLeft=4;spacingRight=4;overflow=hidden;points=[[0,0.5],[1,0.5]];portConstraint=eastwest;rotatable=0;whiteSpace=wrap;html=1;" vertex="1" parent="rz_fQfq-9hxUO6DxXe4U-66">
          <mxGeometry y="150" width="270" height="30" as="geometry" />
        </mxCell>
        <mxCell id="rz_fQfq-9hxUO6DxXe4U-72" value="Date: DateTime" style="text;html=1;align=left;verticalAlign=middle;whiteSpace=wrap;rounded=0;" vertex="1" parent="rz_fQfq-9hxUO6DxXe4U-66">
          <mxGeometry y="180" width="270" height="30" as="geometry" />
        </mxCell>
        <mxCell id="rz_fQfq-9hxUO6DxXe4U-73" value="Description: string" style="text;html=1;align=left;verticalAlign=middle;whiteSpace=wrap;rounded=0;" vertex="1" parent="rz_fQfq-9hxUO6DxXe4U-66">
          <mxGeometry y="210" width="270" height="30" as="geometry" />
        </mxCell>
        <mxCell id="rz_fQfq-9hxUO6DxXe4U-74" value="Accident(name: string, location: string, severity: string)" style="text;html=1;align=left;verticalAlign=middle;whiteSpace=wrap;rounded=0;" vertex="1" parent="rz_fQfq-9hxUO6DxXe4U-66">
          <mxGeometry y="240" width="270" height="30" as="geometry" />
        </mxCell>
        <mxCell id="rz_fQfq-9hxUO6DxXe4U-75" value="ToString(): string" style="text;html=1;align=left;verticalAlign=middle;whiteSpace=wrap;rounded=0;" vertex="1" parent="rz_fQfq-9hxUO6DxXe4U-66">
          <mxGeometry y="270" width="270" height="30" as="geometry" />
        </mxCell>
        <mxCell id="rz_fQfq-9hxUO6DxXe4U-76" value="Report(): string" style="text;html=1;align=left;verticalAlign=middle;whiteSpace=wrap;rounded=0;" vertex="1" parent="rz_fQfq-9hxUO6DxXe4U-66">
          <mxGeometry y="300" width="270" height="30" as="geometry" />
        </mxCell>
        <mxCell id="rz_fQfq-9hxUO6DxXe4U-77" value="EstimateCost(): int" style="text;html=1;align=left;verticalAlign=middle;whiteSpace=wrap;rounded=0;" vertex="1" parent="rz_fQfq-9hxUO6DxXe4U-66">
          <mxGeometry y="330" width="270" height="30" as="geometry" />
        </mxCell>
        <mxCell id="rz_fQfq-9hxUO6DxXe4U-78" value="Register(description: string): void" style="text;html=1;align=left;verticalAlign=middle;whiteSpace=wrap;rounded=0;" vertex="1" parent="rz_fQfq-9hxUO6DxXe4U-66">
          <mxGeometry y="360" width="270" height="30" as="geometry" />
        </mxCell>
        <mxCell id="rz_fQfq-9hxUO6DxXe4U-79" value="IAccidentRegistry" style="swimlane;fontStyle=0;childLayout=stackLayout;horizontal=1;startSize=30;horizontalStack=0;resizeParent=1;resizeParentMax=0;resizeLast=0;collapsible=1;marginBottom=0;whiteSpace=wrap;html=1;" vertex="1" parent="1">
          <mxGeometry x="1280" y="527.5" width="140" height="150" as="geometry" />
        </mxCell>
        <mxCell id="rz_fQfq-9hxUO6DxXe4U-80" value="AddAccident(acc: Accident): void" style="text;strokeColor=none;fillColor=none;align=left;verticalAlign=middle;spacingLeft=4;spacingRight=4;overflow=hidden;points=[[0,0.5],[1,0.5]];portConstraint=eastwest;rotatable=0;whiteSpace=wrap;html=1;" vertex="1" parent="rz_fQfq-9hxUO6DxXe4U-79">
          <mxGeometry y="30" width="140" height="30" as="geometry" />
        </mxCell>
        <mxCell id="rz_fQfq-9hxUO6DxXe4U-81" value="RemoveAccident(num: int): void" style="text;strokeColor=none;fillColor=none;align=left;verticalAlign=middle;spacingLeft=4;spacingRight=4;overflow=hidden;points=[[0,0.5],[1,0.5]];portConstraint=eastwest;rotatable=0;whiteSpace=wrap;html=1;" vertex="1" parent="rz_fQfq-9hxUO6DxXe4U-79">
          <mxGeometry y="60" width="140" height="30" as="geometry" />
        </mxCell>
        <mxCell id="rz_fQfq-9hxUO6DxXe4U-82" value="SortAccidents(): void" style="text;strokeColor=none;fillColor=none;align=left;verticalAlign=middle;spacingLeft=4;spacingRight=4;overflow=hidden;points=[[0,0.5],[1,0.5]];portConstraint=eastwest;rotatable=0;whiteSpace=wrap;html=1;" vertex="1" parent="rz_fQfq-9hxUO6DxXe4U-79">
          <mxGeometry y="90" width="140" height="30" as="geometry" />
        </mxCell>
        <mxCell id="rz_fQfq-9hxUO6DxXe4U-83" value="GenerateReports(): void" style="text;html=1;align=left;verticalAlign=middle;whiteSpace=wrap;rounded=0;" vertex="1" parent="rz_fQfq-9hxUO6DxXe4U-79">
          <mxGeometry y="120" width="140" height="30" as="geometry" />
        </mxCell>
        <mxCell id="rz_fQfq-9hxUO6DxXe4U-84" value="MySerializer" style="swimlane;fontStyle=0;childLayout=stackLayout;horizontal=1;startSize=30;horizontalStack=0;resizeParent=1;resizeParentMax=0;resizeLast=0;collapsible=1;marginBottom=0;whiteSpace=wrap;html=1;" vertex="1" parent="1">
          <mxGeometry x="370" y="430" width="160" height="90" as="geometry" />
        </mxCell>
        <mxCell id="rz_fQfq-9hxUO6DxXe4U-85" value="Write&amp;lt;T&amp;gt;(value: T, path: string): void" style="text;strokeColor=none;fillColor=none;align=center;verticalAlign=middle;spacingLeft=4;spacingRight=4;overflow=hidden;points=[[0,0.5],[1,0.5]];portConstraint=eastwest;rotatable=0;whiteSpace=wrap;html=1;" vertex="1" parent="rz_fQfq-9hxUO6DxXe4U-84">
          <mxGeometry y="30" width="160" height="30" as="geometry" />
        </mxCell>
        <mxCell id="rz_fQfq-9hxUO6DxXe4U-86" value="Read&amp;lt;T&amp;gt;(path: string): T" style="text;strokeColor=none;fillColor=none;align=center;verticalAlign=middle;spacingLeft=4;spacingRight=4;overflow=hidden;points=[[0,0.5],[1,0.5]];portConstraint=eastwest;rotatable=0;whiteSpace=wrap;html=1;" vertex="1" parent="rz_fQfq-9hxUO6DxXe4U-84">
          <mxGeometry y="60" width="160" height="30" as="geometry" />
        </mxCell>
        <mxCell id="rz_fQfq-9hxUO6DxXe4U-87" value="MyJsonSerializer" style="swimlane;fontStyle=0;childLayout=stackLayout;horizontal=1;startSize=30;horizontalStack=0;resizeParent=1;resizeParentMax=0;resizeLast=0;collapsible=1;marginBottom=0;whiteSpace=wrap;html=1;" vertex="1" parent="1">
          <mxGeometry x="370" y="550" width="160" height="90" as="geometry" />
        </mxCell>
        <mxCell id="rz_fQfq-9hxUO6DxXe4U-88" value="Write&amp;lt;T&amp;gt;(value: T, path: string): void" style="text;strokeColor=none;fillColor=none;align=center;verticalAlign=middle;spacingLeft=4;spacingRight=4;overflow=hidden;points=[[0,0.5],[1,0.5]];portConstraint=eastwest;rotatable=0;whiteSpace=wrap;html=1;" vertex="1" parent="rz_fQfq-9hxUO6DxXe4U-87">
          <mxGeometry y="30" width="160" height="30" as="geometry" />
        </mxCell>
        <mxCell id="rz_fQfq-9hxUO6DxXe4U-89" value="Read&amp;lt;T&amp;gt;(path: string): T" style="text;strokeColor=none;fillColor=none;align=center;verticalAlign=middle;spacingLeft=4;spacingRight=4;overflow=hidden;points=[[0,0.5],[1,0.5]];portConstraint=eastwest;rotatable=0;whiteSpace=wrap;html=1;" vertex="1" parent="rz_fQfq-9hxUO6DxXe4U-87">
          <mxGeometry y="60" width="160" height="30" as="geometry" />
        </mxCell>
        <mxCell id="rz_fQfq-9hxUO6DxXe4U-90" style="edgeStyle=orthogonalEdgeStyle;rounded=0;orthogonalLoop=1;jettySize=auto;html=1;entryX=0.5;entryY=1;entryDx=0;entryDy=0;entryPerimeter=0;endArrow=block;endFill=0;" edge="1" parent="1" source="rz_fQfq-9hxUO6DxXe4U-87" target="rz_fQfq-9hxUO6DxXe4U-86">
          <mxGeometry relative="1" as="geometry" />
        </mxCell>
        <mxCell id="rz_fQfq-9hxUO6DxXe4U-91" style="edgeStyle=orthogonalEdgeStyle;rounded=0;orthogonalLoop=1;jettySize=auto;html=1;entryX=0.5;entryY=1;entryDx=0;entryDy=0;endArrow=block;endFill=0;" edge="1" parent="1" source="rz_fQfq-9hxUO6DxXe4U-92" target="rz_fQfq-9hxUO6DxXe4U-78">
          <mxGeometry relative="1" as="geometry" />
        </mxCell>
        <mxCell id="rz_fQfq-9hxUO6DxXe4U-92" value="TrafficAccident" style="swimlane;fontStyle=0;childLayout=stackLayout;horizontal=1;startSize=30;horizontalStack=0;resizeParent=1;resizeParentMax=0;resizeLast=0;collapsible=1;marginBottom=0;whiteSpace=wrap;html=1;" vertex="1" parent="1">
          <mxGeometry x="630" y="860" width="210" height="90" as="geometry" />
        </mxCell>
        <mxCell id="rz_fQfq-9hxUO6DxXe4U-93" value="TrafficAccident(name: string, location: string, severity: int)" style="text;strokeColor=none;fillColor=none;align=left;verticalAlign=middle;spacingLeft=4;spacingRight=4;overflow=hidden;points=[[0,0.5],[1,0.5]];portConstraint=eastwest;rotatable=0;whiteSpace=wrap;html=1;" vertex="1" parent="rz_fQfq-9hxUO6DxXe4U-92">
          <mxGeometry y="30" width="210" height="30" as="geometry" />
        </mxCell>
        <mxCell id="rz_fQfq-9hxUO6DxXe4U-94" value="Report(): string" style="text;strokeColor=none;fillColor=none;align=left;verticalAlign=middle;spacingLeft=4;spacingRight=4;overflow=hidden;points=[[0,0.5],[1,0.5]];portConstraint=eastwest;rotatable=0;whiteSpace=wrap;html=1;" vertex="1" parent="rz_fQfq-9hxUO6DxXe4U-92">
          <mxGeometry y="60" width="210" height="30" as="geometry" />
        </mxCell>
        <mxCell id="rz_fQfq-9hxUO6DxXe4U-96" value="AccidentRegistry" style="swimlane;fontStyle=0;childLayout=stackLayout;horizontal=1;startSize=30;horizontalStack=0;resizeParent=1;resizeParentMax=0;resizeLast=0;collapsible=1;marginBottom=0;whiteSpace=wrap;html=1;" vertex="1" parent="1">
          <mxGeometry x="920" y="430" width="310" height="345" as="geometry" />
        </mxCell>
        <mxCell id="rz_fQfq-9hxUO6DxXe4U-97" value="MinSeverity: int" style="text;strokeColor=none;fillColor=none;align=left;verticalAlign=middle;spacingLeft=4;spacingRight=4;overflow=hidden;points=[[0,0.5],[1,0.5]];portConstraint=eastwest;rotatable=0;whiteSpace=wrap;html=1;" vertex="1" parent="rz_fQfq-9hxUO6DxXe4U-96">
          <mxGeometry y="30" width="310" height="30" as="geometry" />
        </mxCell>
        <mxCell id="rz_fQfq-9hxUO6DxXe4U-98" value="MaxSeverity: int" style="text;strokeColor=none;fillColor=none;align=left;verticalAlign=middle;spacingLeft=4;spacingRight=4;overflow=hidden;points=[[0,0.5],[1,0.5]];portConstraint=eastwest;rotatable=0;whiteSpace=wrap;html=1;" vertex="1" parent="rz_fQfq-9hxUO6DxXe4U-96">
          <mxGeometry y="60" width="310" height="30" as="geometry" />
        </mxCell>
        <mxCell id="rz_fQfq-9hxUO6DxXe4U-99" value="AccidentRegistry(minseverity: int, maxseverity: int, accs: Accidents[])" style="text;html=1;align=left;verticalAlign=middle;whiteSpace=wrap;rounded=0;" vertex="1" parent="rz_fQfq-9hxUO6DxXe4U-96">
          <mxGeometry y="90" width="310" height="30" as="geometry" />
        </mxCell>
        <mxCell id="rz_fQfq-9hxUO6DxXe4U-100" value="AddAccident(acc: Accident): void" style="text;html=1;align=left;verticalAlign=middle;whiteSpace=wrap;rounded=0;" vertex="1" parent="rz_fQfq-9hxUO6DxXe4U-96">
          <mxGeometry y="120" width="310" height="30" as="geometry" />
        </mxCell>
        <mxCell id="rz_fQfq-9hxUO6DxXe4U-101" value="RemoveAccident(num: int): void" style="text;strokeColor=none;fillColor=none;align=left;verticalAlign=middle;spacingLeft=4;spacingRight=4;overflow=hidden;points=[[0,0.5],[1,0.5]];portConstraint=eastwest;rotatable=0;whiteSpace=wrap;html=1;" vertex="1" parent="rz_fQfq-9hxUO6DxXe4U-96">
          <mxGeometry y="150" width="310" height="30" as="geometry" />
        </mxCell>
        <mxCell id="rz_fQfq-9hxUO6DxXe4U-102" value="SortAccidents(): void" style="text;strokeColor=none;fillColor=none;align=left;verticalAlign=middle;spacingLeft=4;spacingRight=4;overflow=hidden;points=[[0,0.5],[1,0.5]];portConstraint=eastwest;rotatable=0;whiteSpace=wrap;html=1;" vertex="1" parent="rz_fQfq-9hxUO6DxXe4U-96">
          <mxGeometry y="180" width="310" height="30" as="geometry" />
        </mxCell>
        <mxCell id="rz_fQfq-9hxUO6DxXe4U-103" value="GenerateReports(): void" style="text;html=1;align=left;verticalAlign=middle;whiteSpace=wrap;rounded=0;" vertex="1" parent="rz_fQfq-9hxUO6DxXe4U-96">
          <mxGeometry y="210" width="310" height="30" as="geometry" />
        </mxCell>
        <mxCell id="rz_fQfq-9hxUO6DxXe4U-104" value="ArchiveAccidentRegistry" style="swimlane;fontStyle=0;childLayout=stackLayout;horizontal=1;startSize=15;horizontalStack=0;resizeParent=1;resizeParentMax=0;resizeLast=0;collapsible=1;marginBottom=0;whiteSpace=wrap;html=1;" vertex="1" parent="rz_fQfq-9hxUO6DxXe4U-96">
          <mxGeometry y="240" width="310" height="75" as="geometry" />
        </mxCell>
        <mxCell id="rz_fQfq-9hxUO6DxXe4U-105" value="OldAccs: Accident[]" style="text;strokeColor=none;fillColor=none;align=left;verticalAlign=middle;spacingLeft=4;spacingRight=4;overflow=hidden;points=[[0,0.5],[1,0.5]];portConstraint=eastwest;rotatable=0;whiteSpace=wrap;html=1;" vertex="1" parent="rz_fQfq-9hxUO6DxXe4U-104">
          <mxGeometry y="15" width="310" height="30" as="geometry" />
        </mxCell>
        <mxCell id="rz_fQfq-9hxUO6DxXe4U-106" value="AddAccident(acc: Accident): void" style="text;strokeColor=none;fillColor=none;align=left;verticalAlign=middle;spacingLeft=4;spacingRight=4;overflow=hidden;points=[[0,0.5],[1,0.5]];portConstraint=eastwest;rotatable=0;whiteSpace=wrap;html=1;" vertex="1" parent="rz_fQfq-9hxUO6DxXe4U-104">
          <mxGeometry y="45" width="310" height="30" as="geometry" />
        </mxCell>
        <mxCell id="rz_fQfq-9hxUO6DxXe4U-107" value="Archivate(archieve: ArchiveAccidentRegistry): void" style="text;html=1;align=left;verticalAlign=middle;whiteSpace=wrap;rounded=0;" vertex="1" parent="rz_fQfq-9hxUO6DxXe4U-96">
          <mxGeometry y="315" width="310" height="30" as="geometry" />
        </mxCell>
        <mxCell id="rz_fQfq-9hxUO6DxXe4U-110" style="edgeStyle=orthogonalEdgeStyle;rounded=0;orthogonalLoop=1;jettySize=auto;html=1;entryX=0;entryY=0.5;entryDx=0;entryDy=0;dashed=1;endArrow=block;endFill=0;" edge="1" parent="1" source="rz_fQfq-9hxUO6DxXe4U-101" target="rz_fQfq-9hxUO6DxXe4U-81">
          <mxGeometry relative="1" as="geometry" />
        </mxCell>
        <mxCell id="rz_fQfq-9hxUO6DxXe4U-113" style="edgeStyle=orthogonalEdgeStyle;rounded=0;orthogonalLoop=1;jettySize=auto;html=1;entryX=0.5;entryY=0;entryDx=0;entryDy=0;dashed=1;" edge="1" parent="1" source="rz_fQfq-9hxUO6DxXe4U-64" target="rz_fQfq-9hxUO6DxXe4U-66">
          <mxGeometry relative="1" as="geometry" />
        </mxCell>
        <mxCell id="rz_fQfq-9hxUO6DxXe4U-114" style="edgeStyle=orthogonalEdgeStyle;rounded=0;orthogonalLoop=1;jettySize=auto;html=1;dashed=1;" edge="1" parent="1" source="rz_fQfq-9hxUO6DxXe4U-64" target="rz_fQfq-9hxUO6DxXe4U-96">
          <mxGeometry relative="1" as="geometry" />
        </mxCell>
        <mxCell id="rz_fQfq-9hxUO6DxXe4U-116" style="edgeStyle=orthogonalEdgeStyle;rounded=0;orthogonalLoop=1;jettySize=auto;html=1;entryX=0;entryY=0.5;entryDx=0;entryDy=0;strokeColor=none;endArrow=diamondThin;endFill=0;endSize=24;" edge="1" parent="1" source="rz_fQfq-9hxUO6DxXe4U-72" target="rz_fQfq-9hxUO6DxXe4U-102">
          <mxGeometry relative="1" as="geometry" />
        </mxCell>
        <mxCell id="rz_fQfq-9hxUO6DxXe4U-117" value="" style="endArrow=diamondThin;endFill=0;endSize=24;html=1;rounded=0;" edge="1" parent="1">
          <mxGeometry width="160" relative="1" as="geometry">
            <mxPoint x="870" y="609" as="sourcePoint" />
            <mxPoint x="920" y="609" as="targetPoint" />
            <Array as="points" />
          </mxGeometry>
        </mxCell>
      </root>
    </mxGraphModel>
  </diagram>
</mxfile>
